<?xml version="1.0" encoding="UTF-8"?>
<svg version="1.1" xmlns="http://www.w3.org/2000/svg" width="2560" height="284">
<path d="M0 0 C1.11442726 0.00026688 2.22885452 0.00053375 3.37705231 0.00080872 C45.72197972 0.01345917 88.01064667 0.61586799 130.32920074 2.09671783 C133.00073516 2.18970091 135.67232471 2.28093405 138.34393311 2.37176514 C251.09068048 6.21570377 363.64342021 13.82859566 785.9375 56.1875 C787.61167118 56.38710579 787.61167118 56.38710579 789.319664 56.59074402 C890.71363181 68.68169019 991.93514999 82.01803448 1142.55135345 103.69612122 C1145.7914122 104.16630055 1149.03157481 104.63575542 1152.27178955 105.1048584 C1221.72283068 115.15982928 1291.06496961 125.92125577 1360.3671875 136.953125 C1361.45629425 137.12648376 1362.545401 137.29984253 1363.66751099 137.47845459 C1461.5702808 153.11523255 1559.40580599 169.32361189 1659.9375 187.1875 C1660.94823578 187.36708252 1661.95897156 187.54666504 1663.00033569 187.73168945 C1744.7454637 202.25769784 1826.42938887 217.07281327 1907.95156097 232.80435181 C1911.1904456 233.42923141 1914.42946303 234.053422 1917.66845703 234.67773438 C1932.30458646 237.49979152 1946.93843491 240.33348216 1961.5707531 243.17523098 C1968.08045 244.43942042 1974.59054394 245.7015349 1981.10107422 246.96142578 C2041.14281905 258.58147898 2101.08495198 270.62484321 2160.9375 283.1875 C2160.9375 283.5175 2160.9375 283.8475 2160.9375 284.1875 C1317.1275 284.1875 473.3175 284.1875 -396.0625 284.1875 C-396.0625 203.3375 -396.0625 122.4875 -396.0625 39.1875 C-342.15404195 25.71038549 -342.15404195 25.71038549 -320.109375 22.0234375 C-319.22231873 21.8733725 -318.33526245 21.7233075 -317.42132568 21.56869507 C-278.48715733 15.03737102 -239.37822813 10.67935743 -200.0625 7.1875 C-198.61472168 7.05858368 -198.61472168 7.05858368 -197.13769531 6.92706299 C-172.61170454 4.76492071 -148.02994622 3.64915323 -123.4375 2.5625 C-122.72573231 2.53082859 -122.01396461 2.49915718 -121.2806282 2.46652603 C-80.85556244 0.67086144 -40.46419251 -0.02188826 0 0 Z " fill="#D0C3C2" transform="translate(396.0625,-0.1875)"/>
<path d="M0 0 C-5.02516171 2.89913176 -10.14144873 3.15444603 -15.8359375 2.87890625 C-16.89941406 2.83056641 -17.96289062 2.78222656 -19.05859375 2.73242188 C-20.15300781 2.67634766 -21.24742187 2.62027344 -22.375 2.5625 C-24.05142578 2.48418945 -24.05142578 2.48418945 -25.76171875 2.40429688 C-28.50813492 2.27519184 -31.25413422 2.14025096 -34 2 C-34 1.67 -34 1.34 -34 1 C-22.64906646 0.26429134 -11.37473908 -0.13947228 0 0 Z " fill="#D3CAC9" transform="translate(272,3)"/>
<path d="M0 0 C3.3 0.33 6.6 0.66 10 1 C10 1.33 10 1.66 10 2 C3.375 3.125 3.375 3.125 0 2 C0 1.34 0 0.68 0 0 Z M0 3 C3 4 3 4 3 4 Z " fill="#D5CAC9" transform="translate(1817,147)"/>
</svg>
