<svg width="89" height="67" viewBox="0 0 89 67" fill="none" xmlns="http://www.w3.org/2000/svg">
<path d="M26.256 37.7L23.652 44H22.336L29.952 25.716H30.708L38.38 44H36.952L34.32 37.7H26.256ZM30.26 27.788C29.98 28.628 29.728 29.328 29.504 29.888L26.704 36.608H33.872L31.1 29.916C30.6707 28.8707 30.3907 28.1613 30.26 27.788ZM55.255 43.048H54.499L49.207 30.196C48.983 29.692 48.759 29.104 48.535 28.432C48.535 28.4507 48.5164 28.5533 48.479 28.74C48.4604 28.9267 48.4324 29.1787 48.395 29.496C48.3577 29.7947 48.3204 30.0467 48.283 30.252L46.183 44H44.923L47.891 25.716H48.647L54.303 39.128C54.751 40.248 54.975 40.836 54.975 40.892C55.1057 40.5 55.3577 39.9213 55.731 39.156L62.031 25.716H62.787L65.559 44H64.215L62.227 30.196C62.0964 29.2813 62.031 28.6747 62.031 28.376L61.219 30.224L55.255 43.048ZM75.13 44V25.828H83.614V26.948H76.418V33.556H82.914V34.648H76.418V42.824H83.894V44H75.13Z" fill="black"/>
<path d="M83 1V20" stroke="black" stroke-linecap="square"/>
<path d="M83 1L2 1" stroke="black" stroke-linecap="square"/>
<path d="M1 62L1 1" stroke="black" stroke-linecap="square"/>
<path d="M42 62L2 62" stroke="black" stroke-linecap="square"/>
<path d="M52.75 63.552C52.05 63.944 51.0747 64.14 49.824 64.14C48.5827 64.14 47.486 63.692 46.534 62.796C45.5913 61.9 45.12 60.7893 45.12 59.464C45.12 58.1293 45.5307 57.014 46.352 56.118C47.1827 55.222 48.2513 54.774 49.558 54.774C50.6127 54.774 51.644 54.9373 52.652 55.264L52.484 55.796C51.5133 55.4973 50.51 55.348 49.474 55.348C48.438 55.348 47.5653 55.7447 46.856 56.538C46.156 57.322 45.806 58.288 45.806 59.436C45.806 60.5747 46.212 61.5453 47.024 62.348C47.8453 63.1507 48.7927 63.552 49.866 63.552C50.9393 63.552 51.8307 63.4027 52.54 63.104L52.75 63.552ZM57.8732 60.85L56.5712 64H55.9132L59.7212 54.858H60.0992L63.9352 64H63.2212L61.9052 60.85H57.8732ZM59.8752 55.894C59.7352 56.314 59.6092 56.664 59.4972 56.944L58.0972 60.304H61.6812L60.2952 56.958C60.0806 56.4353 59.9406 56.0807 59.8752 55.894ZM68.1588 64V54.914H72.8208V55.474H68.8028V58.778H72.4708V59.324H68.8028V64H68.1588ZM77.6891 64V54.914H81.9311V55.474H78.3331V58.778H81.5811V59.324H78.3331V63.412H82.0711V64H77.6891Z" fill="black"/>
</svg>
