<svg width="116" height="40" viewBox="0 0 116 40" fill="none" xmlns="http://www.w3.org/2000/svg">
<path d="M5.472 23.9L2.124 32H0.432L10.224 8.492H11.196L21.06 32H19.224L15.84 23.9H5.472ZM10.62 11.156C10.26 12.236 9.936 13.136 9.648 13.856L6.048 22.496H15.264L11.7 13.892C11.148 12.548 10.788 11.636 10.62 11.156ZM36.6365 30.776H35.6645L28.8605 14.252C28.5725 13.604 28.2845 12.848 27.9965 11.984C27.9965 12.008 27.9725 12.14 27.9245 12.38C27.9005 12.62 27.8645 12.944 27.8165 13.352C27.7685 13.736 27.7205 14.06 27.6725 14.324L24.9725 32H23.3525L27.1685 8.492H28.1405L35.4125 25.736C35.9885 27.176 36.2765 27.932 36.2765 28.004C36.4445 27.5 36.7685 26.756 37.2485 25.772L45.3485 8.492H46.3205L49.8845 32H48.1565L45.6005 14.252C45.4325 13.076 45.3485 12.296 45.3485 11.912L44.3045 14.288L36.6365 30.776ZM56.07 32V8.636H66.978V10.076H57.726V18.572H66.078V19.976H57.726V30.488H67.338V32H56.07Z" fill="black"/>
<path d="M8 1H62" stroke="black" stroke-linecap="round"/>
</svg>
